<svg width="60" height="60" viewBox="0 0 60 60" fill="none" xmlns="http://www.w3.org/2000/svg">
<rect x="12" y="13" width="35" height="35" rx="10" fill="#02B876"/>
<path fill-rule="evenodd" clip-rule="evenodd" d="M31.4973 19.8679C30.8614 18.7126 29.2021 18.7102 28.5627 19.8636L20.2126 34.9283C19.5933 36.0456 20.4013 37.4172 21.6787 37.4172H24.0541L23.0784 39.3834C22.5254 40.4977 23.336 41.8048 24.5799 41.8048H35.6988C36.9515 41.8048 37.7616 40.4809 37.1913 39.3655L36.1952 37.4172H38.3213C39.5966 37.4172 40.4048 36.0498 39.7898 34.9326L31.4973 19.8679ZM36.1952 37.4172L31.5489 28.3296C30.9222 27.1038 29.1668 27.1143 28.5548 28.3475L24.0541 37.4172H36.1952Z" fill="#F6F6F6"/>
<rect x="9" y="10" width="41" height="41" rx="13" stroke="#02B876" stroke-opacity="0.15" stroke-width="6"/>
</svg>
